# xmcd
# 
# Track frame offsets:
#     150
#     16670
#     31432
#     42645
#     52527
#     76125
#     96227
#     110602
#     129202
#     138977
#     153047
#     168440
#     184940
#     206400
#     226395
#     244767
#     266250
#     279857
#     294107
#     318832
# 
# Disc length: 4419
# 
# Revision: 17
# Processed by: cddbd v1.5.2PL0 Copyright (c) Steve Scherf et al.
# Submitted via: fre:ac v1.0.31
# 
DISCID=f6114114
DTITLE=John Denver - The Rocky Mountain Collection Disc 1
DYEAR=1996
DGENRE=Rock/Pop
TTITLE0=Leaving, on a Jet Plane
TTITLE1=Rhymes and Reasons
TTITLE2=Follow Me
TTITLE3=Aspenglow
TTITLE4=Sunshine on My Shoulders
TTITLE5=My Sweet Lady
TTITLE6=Take Me Home Country Roads
TTITLE7=Poem, Prayers and Promises
TTITLE8=The Eagle and the Hawk
TTITLE9=Starwood in Aspen
TTITLE10=Friends with You
TTITLE11=Goodbye Again
TTITLE12=Rocky Mountain High
TTITLE13=I'd Rather Be a Cowboy (Lady's Chains)
TTITLE14=Farewell Andromeda (Welcome to My Morning)
TTITLE15=Back Home Again
TTITLE16=Annie's Song
TTITLE17=Thank God I'm a Country Boy
TTITLE18=Sweet Surrender
TTITLE19=This Old Guitar
EXTD=
EXTT0=
EXTT1=
EXTT2=
EXTT3=
EXTT4=
EXTT5=
EXTT6=
EXTT7=
EXTT8=
EXTT9=
EXTT10=
EXTT11=
EXTT12=
EXTT13=
EXTT14=
EXTT15=
EXTT16=
EXTT17=
EXTT18=
EXTT19=
PLAYORDER=
